<svg xmlns="http://www.w3.org/2000/svg" viewBox="0 0 415 195"><defs><style>.cls-1{fill:#66696d;}.cls-2{fill:#f6652e;}</style></defs><title>Artboard 2</title><g id="Header"><path class="cls-1" d="M86.31,60.51c-.17.56-.34,1.12-.48,1.71l-.44,1.7c-.14.58-.24,1.16-.34,1.73a58.2,58.2,0,0,0-1,14,97.91,97.91,0,0,1,2.33-13.71A63.2,63.2,0,0,1,91.07,53a54,54,0,0,1,3.46-5.93,48.74,48.74,0,0,1,9.13-10.26,36.26,36.26,0,0,1,5.66-4,27.9,27.9,0,0,0-6.16,3.36,40.46,40.46,0,0,0-5.39,4.57,42.09,42.09,0,0,0-4.55,5.43,52.13,52.13,0,0,0-3.66,6.08,58.27,58.27,0,0,0-2.71,6.55C86.65,59.37,86.49,60,86.31,60.51Z"/><path class="cls-1" d="M67,80.25a62.69,62.69,0,0,1,2-8.34,77.16,77.16,0,0,1,3-8.06c1.15-2.64,2.42-5.23,3.84-7.79a30.08,30.08,0,0,0-2.73,3.44,40.21,40.21,0,0,0-2.3,3.76,43.7,43.7,0,0,0-3.42,8.14,39.09,39.09,0,0,0-1.65,8.7,31.17,31.17,0,0,0,.53,8.78A67.51,67.51,0,0,1,67,80.25Z"/><path class="cls-1" d="M78.34,84.44a71.13,71.13,0,0,1-.85-10.5v-.66l0-.65,0-1.3.09-1.3,0-.65.08-.64c0-.43.09-.86.15-1.29l.2-1.29c0-.43.15-.85.23-1.27s.16-.85.27-1.27a44.09,44.09,0,0,1,3.48-9.77,41,41,0,0,1,5.79-8.73,23.72,23.72,0,0,0-3.86,3.7,32.89,32.89,0,0,0-3.1,4.4,34.76,34.76,0,0,0-4,10,35.79,35.79,0,0,0-.8,5.35l0,.68,0,.68,0,1.36c0,.89,0,1.79.11,2.69A38.55,38.55,0,0,0,78.34,84.44Z"/><path class="cls-2" d="M106.13,163.86l-4.25,1c-2.82.63-5.66,1.31-8.48,2s-5.58,1.33-8.36,2q-4.14-.14-8.28-.22l-8.37-.19c-5.58-.09-11.16-.2-16.75-.24-2.79,0-5.58-.06-8.37-.06s-5.59,0-8.38,0q-8.37,0-16.75.17,8.37.51,16.75.84c2.79.13,5.58.22,8.37.32l8.37.27c5.58.18,11.16.29,16.75.38h8.37c2.79.23,5.58.27,8.37.34h.12l.09-.07c2.81-.74,5.62-1.46,8.42-2.22s5.61-1.49,8.41-2.26l4.2-1.15,4.19-1.18c2.8-.78,5.59-1.59,8.38-2.41-2.85.59-5.69,1.19-8.53,1.82Z"/><path class="cls-2" d="M81.56,116.49c.09,2.82.24,5.64.34,8.46l.46,8.45.55,8.47c.21,2.82.4,5.63.64,8.44.46,5.63,1,11.26,1.66,16.87,0-5.66-.12-11.3-.34-17-.08-2.82-.23-5.63-.34-8.45l-.45-8.46-.55-8.45c-.21-2.81-.4-5.63-.64-8.44-.46-5.63-1-11.25-1.66-16.87C81.21,105.2,81.35,110.84,81.56,116.49Z"/><path class="cls-1" d="M27.18,36.51l.13,1.14c0,.38.11.76.18,1.13a56.56,56.56,0,0,0,5.88,17.28,64.9,64.9,0,0,0,4.78,7.76A53.77,53.77,0,0,0,44,70.76a74.15,74.15,0,0,1-5.16-7.4,81.07,81.07,0,0,1-4.27-7.89,68.27,68.27,0,0,1-3.3-8.3c-.21-.71-.45-1.42-.65-2.13L30,42.89l-.47-2.18-.12-.54-.09-.55-.18-1.1a49.15,49.15,0,0,1,2.77-26.26l.4-1,.21-.53.23-.51.94-2.05c.29-.68.68-1.34,1-2l1-2L34.52,6c-.42.63-.86,1.25-1.22,1.91l-1.12,2-.28.49-.24.52-.49,1-.48,1-.24.52c-.08.17-.14.34-.21.53l-.82,2.14-.2.53c-.06.18-.11.36-.17.55l-.34,1.1c-.21.73-.46,1.45-.6,2.21l-.5,2.24c-.14.75-.23,1.51-.35,2.27-.05.38-.12.76-.15,1.14L27,27.31l-.09,1.15,0,.59v.58l0,2.3c0,.77.08,1.53.11,2.3S27.1,35.75,27.18,36.51Z"/><path class="cls-1" d="M17.52,47.13l.07.44.14.88.15.88.21.86c.16.58.27,1.16.45,1.71l.54,1.71a42.44,42.44,0,0,0,3,6.45,52.32,52.32,0,0,0,8.75,11.07,63.23,63.23,0,0,0,5.33,4.62A48.3,48.3,0,0,0,42,79.65c-1.82-1.44-3.58-3-5.28-4.54s-3.34-3.2-4.9-4.9a65.49,65.49,0,0,1-4.43-5.28,51.93,51.93,0,0,1-3.8-5.71,42.92,42.92,0,0,1-3-6.15,36.62,36.62,0,0,1-1.8-6.58l-.25-1.71-.14-1.71a16.28,16.28,0,0,1-.05-1.71,16.22,16.22,0,0,1,0-1.71l.12-1.71c0-.57.16-1.14.23-1.71l.12-.86.21-.85.34-1.7-.61,1.64-.29.83-.23.84c-.15.57-.31,1.14-.43,1.71l-.29,1.75a27.58,27.58,0,0,0-.08,7.09Z"/><path class="cls-1" d="M12.8,66.39l.27.87c.09.29.21.57.31.86.21.57.42,1.14.64,1.71l.74,1.67a41.51,41.51,0,0,0,3.7,6.31A42.3,42.3,0,0,0,28.89,87.94a47.18,47.18,0,0,0,6.29,3.61c1.1.51,2.21,1,3.34,1.4A29.85,29.85,0,0,0,42,94q-.84-.33-1.65-.72c-.54-.25-1.08-.5-1.61-.78-1.06-.53-2.11-1.09-3.13-1.71a55.31,55.31,0,0,1-5.92-3.94,49.9,49.9,0,0,1-5.29-4.67,45.56,45.56,0,0,1-4.54-5.37A44.22,44.22,0,0,1,13.6,64.27a59.58,59.58,0,0,1-2.4-14,43.25,43.25,0,0,0,1.1,14.38C12.45,65.22,12.64,65.8,12.8,66.39Z"/><path class="cls-1" d="M13,93.19a38.94,38.94,0,0,0,5.4,4.18,48.68,48.68,0,0,0,12.39,5.47,56.71,56.71,0,0,0,6.57,1.48A45.35,45.35,0,0,0,44,105c-2.2-.4-4.37-.88-6.49-1.46s-4.27-1.2-6.35-1.93a59.21,59.21,0,0,1-6.11-2.49,46.51,46.51,0,0,1-5.76-3.14A39.94,39.94,0,0,1,14.1,92a32.48,32.48,0,0,1-4.4-4.83l-.95-1.33c-.28-.47-.55-.94-.84-1.4A13.49,13.49,0,0,1,7.13,83c-.26-.48-.5-1-.71-1.47L5.79,80c-.19-.51-.35-1-.53-1.57L5,77.63l-.2-.8-.42-1.62.17,1.66.09.84.17.83c.11.55.22,1.1.34,1.65l.49,1.63a25.82,25.82,0,0,0,3,6.12,16.79,16.79,0,0,0,1,1.41l.52.68c.17.23.37.43.55.65.38.43.73.88,1.13,1.29Z"/><path class="cls-1" d="M45.73,113.38a18.06,18.06,0,0,1-4-.74,15.21,15.21,0,0,1-1.93-.77c-.65-.34-1.27-.71-1.88-1.11a6.9,6.9,0,0,0,1.39,1.79,8.59,8.59,0,0,0,1.89,1.33,11.33,11.33,0,0,0,2.16.83,12.6,12.6,0,0,0,2.28.37,15.54,15.54,0,0,0,4.51-.34,14,14,0,0,0,4.18-1.59c-1.49.11-2.93.22-4.35.28A36.79,36.79,0,0,1,45.73,113.38Z"/><path class="cls-1" d="M33.79,117.72l.58-.13a4.11,4.11,0,0,0,.57-.17l.55-.21L36,117a5.91,5.91,0,0,0,1.84-1.41,11.81,11.81,0,0,1-4.23.84,15.23,15.23,0,0,1-4.14-.54,28.82,28.82,0,0,1-4-1.46c-.65-.32-1.31-.63-2-.94s-1.32-.68-2-1c.49.58,1,1.14,1.56,1.68s1.19,1,1.81,1.42a14.66,14.66,0,0,0,4.24,1.93A10.69,10.69,0,0,0,33.79,117.72Z"/><path class="cls-1" d="M49.71,118.86c-.59,0-1.18-.08-1.79-.1s-1.2-.14-1.85-.14c.26.19.53.34.8.51a6.78,6.78,0,0,0,.84.45,10.31,10.31,0,0,0,1.8.61,11.45,11.45,0,0,0,7.52-.68,8.34,8.34,0,0,0,3.06-2.26,30.57,30.57,0,0,1-3.48,1,24.85,24.85,0,0,1-3.42.55A27,27,0,0,1,49.71,118.86Z"/><path class="cls-1" d="M29,122.8a7,7,0,0,0,1.81.91,8.38,8.38,0,0,0,2,.41,11,11,0,0,0,2,0,14,14,0,0,0,3.82-.88A12.18,12.18,0,0,0,42,121.36c-1.29.18-2.52.4-3.74.6s-2.41.37-3.61.47c-.59,0-1.18.07-1.77.07a11.54,11.54,0,0,1-1.76-.1,10.37,10.37,0,0,1-3.48-1A5.37,5.37,0,0,0,29,122.8Z"/><path class="cls-1" d="M64.53,121.36a38.92,38.92,0,0,1-3.76,1.6A21.24,21.24,0,0,1,57,124a15.27,15.27,0,0,1-1.91.2c-.65,0-1.3,0-1.94,0a25.69,25.69,0,0,1-4-.71,9,9,0,0,0,3.76,2,10.56,10.56,0,0,0,2.16.34,10.8,10.8,0,0,0,2.2-.13,12,12,0,0,0,4.07-1.47A10.27,10.27,0,0,0,64.53,121.36Z"/><path class="cls-1" d="M36.33,130.41a6.87,6.87,0,0,0,.88.27l.9.22c.3.07.62.08.93.12a6,6,0,0,0,.94.07l1,0c.31,0,.63-.09,1-.14a6.24,6.24,0,0,0,.94-.26,5.1,5.1,0,0,0,.9-.39l.22-.11.21-.14.4-.28a2.9,2.9,0,0,0,.36-.34,2.81,2.81,0,0,0,.35-.34,3.36,3.36,0,0,0,.81-1.71,5.12,5.12,0,0,1-1.37,1.07,2.47,2.47,0,0,1-.36.19l-.37.17-.38.13-.19.07-.19.05a9.54,9.54,0,0,1-1.58.29c-.28,0-.54,0-.81.05H40a5.76,5.76,0,0,1-.83,0c-.28,0-.56,0-.84-.05-.56-.08-1.13-.1-1.71-.19s-1.15-.13-1.74-.21a15.24,15.24,0,0,0-1.8-.19,14.06,14.06,0,0,0,1.56,1A14.85,14.85,0,0,0,36.33,130.41Z"/><path class="cls-1" d="M50,135.59a15.23,15.23,0,0,0,5.88-2.44,12.88,12.88,0,0,0,4.19-4.61A22.13,22.13,0,0,1,55.2,132a19.87,19.87,0,0,1-5.49,1.9,22.5,22.5,0,0,1-5.85.29,46.75,46.75,0,0,1-6-.88,18.08,18.08,0,0,0,5.81,2.22A16.69,16.69,0,0,0,50,135.59Z"/><path class="cls-1" d="M73.48,122.75a15.08,15.08,0,0,1-1.43,2.37,8.43,8.43,0,0,0,2.14-1.94,8.52,8.52,0,0,0,1.37-2.64,11.25,11.25,0,0,0,0-5.9,18.36,18.36,0,0,0-2.27-5.33A19,19,0,0,0,69.66,105c.89,1.67,1.74,3.32,2.48,5a29.6,29.6,0,0,1,1.8,5.09,13.4,13.4,0,0,1,.3,5.2A10.62,10.62,0,0,1,73.48,122.75Z"/><path class="cls-2" d="M14.66,111.27l-.7.16,0,.71.41,6.72.45,6.72.45,6.72.48,6.71.5,6.71.53,6.72c.37,4.47.75,8.94,1.17,13.41-.1-4.49-.25-9-.41-13.46l-.26-6.73L17,138.94l-.31-6.73-.34-6.72L16,118.77l-.34-6q7-1.49,13.91-3a36.91,36.91,0,0,1-4.14-.81Q20.07,110.08,14.66,111.27Z"/><path class="cls-1" d="M39.6,108.36a41.8,41.8,0,0,1-4.19.16h-.18l-1-.09h0c-1.08,0-2.16-.12-3.23-.25l-1.3-.18c-.43-.06-.89-.15-1.34-.23l-.24,0c-.46-.09-.91-.18-1.37-.29a37.72,37.72,0,0,1-8.1-2.93,52,52,0,0,1-7.42-4.68A27.6,27.6,0,0,0,18,105.66l.93.55.4.21.54.29.53.26.42.2.62.28.34.15.7.28.26.1.77.28.18.07.86.27.1,0c.3.09.93.23.93.23h-.17a38.45,38.45,0,0,0,4.27.87l.13,0h0l1.33.12.36,0,1,0h1.77c.41,0,.82,0,1.23-.07a27.86,27.86,0,0,0,4.27-.65,20.92,20.92,0,0,0,4.08-1.4A37.08,37.08,0,0,1,39.6,108.36Z"/><path class="cls-2" d="M72.2,99.86c3-.72,6-1.47,8.91-2.22q-4.59.83-9.19,1.7-.36-.68-.75-1.35L71,97.77c.21.37.87,1.57,1.44,2.62Z"/><path class="cls-1" d="M77.37,113.2a44.2,44.2,0,0,0-1.59-5.26c-.14-.39-.29-.78-.44-1.17-.06-.14-.12-.28-.17-.42l-.3-.72c-.07-.18-.15-.34-.22-.54l-.25-.57-.28-.62-.16-.34c-.42-.91-.86-1.81-1.32-2.69h0l-.23-.45c-.57-1-1.24-2.25-1.45-2.62a87.21,87.21,0,0,0-5.93-9c-1.1-1.46-2.23-2.92-3.42-4.31l-.87-1-.2-.24L60.35,83l-.4-.55c-.53-.74-1.05-1.48-1.57-2.23A194.21,194.21,0,0,1,47,61.69c-.86-1.59-1.67-3.21-2.46-4.84s-1.51-3.28-2.19-5S41,48.54,40.49,46.83a40.67,40.67,0,0,1-1.28-5.2v-.07a22.94,22.94,0,0,1-.46-2.39c-.11-.8-.22-1.64-.3-2.47-.17-1.65-.26-3.32-.29-5s0-3.33.13-5,.26-3.33.48-5,.51-3.31.84-4.95l.25-1.23c.1-.4.2-.82.3-1.23.18-.83.34-1.66.49-2.49a38.18,38.18,0,0,0,.56-5.12,19.66,19.66,0,0,0-.08-2.54,8.31,8.31,0,0,0-.61-2.45A8.21,8.21,0,0,1,41,4.17a19.29,19.29,0,0,1-.08,2.52,37.82,37.82,0,0,1-.81,5c-.17.82-.38,1.64-.59,2.44-.11.41-.22.81-.34,1.22l-.33,1.23c-.41,1.65-.74,3.31-1,5a64.05,64.05,0,0,0-.92,10.15c0,1.71,0,3.42.16,5.11.07.85.15,1.71.27,2.55s.24,1.65.43,2.51a46.86,46.86,0,0,0,2.11,8.06l.08.21c.28.8.58,1.59.89,2.38.69,1.7,1.43,3.39,2.21,5.05s1.61,3.3,2.47,4.92,1.76,3.22,2.68,4.79,1.88,3.15,2.85,4.7,2,3.07,3,4.61,2.06,3,3.13,4.51q.8,1.13,1.62,2.22l.41.56.2.27.24.29.9,1c1.19,1.37,2.33,2.78,3.46,4.2a99.25,99.25,0,0,1,6.24,8.89c.21.34.42.68.62,1l.32.54c.29.49.57,1,.84,1.46l.1.19c.28.5.55,1,.82,1.51.84,1.6,1.62,3.24,2.32,4.91a49.76,49.76,0,0,1,1.84,5.13,27,27,0,0,1,1.08,5.34,19.23,19.23,0,0,0-.24-2.73C77.76,115,77.59,114.09,77.37,113.2Z"/><path class="cls-2" d="M120.16,148.26c-.14-4.29-.32-8.58-.5-12.86s-.4-8.57-.65-12.85-.5-8.55-.77-12.84l0-.54-.51-.19c-2.8-1-5.62-2-8.42-3s-5.63-1.93-8.44-2.9-5.64-1.91-8.48-2.82l-2.1-.69-2.7-.86-3.71-1.16q2.63,1.09,5.27,2.16v0l3,1.2c2.77,1.12,5.54,2.19,8.32,3.27s5.55,2.14,8.33,3.18c2.62,1,5.23,2,7.87,2.93.22,4.1.44,8.21.71,12.31.26,4.28.56,8.55.87,12.84s.64,8.54,1,12.82.76,8.55,1.23,12.82C120.41,156.83,120.29,152.54,120.16,148.26Z"/><path class="cls-1" d="M89.09,99.24a103.54,103.54,0,0,1-.52-17.78,74.44,74.44,0,0,1,1.1-9.06,67.1,67.1,0,0,1,2.26-8.82,61.62,61.62,0,0,1,3.5-8.39,58.26,58.26,0,0,1,4.73-7.78,59.32,59.32,0,0,1,5.89-7,47.3,47.3,0,0,1,7-5.92,38.7,38.7,0,0,0-7.6,5.31,51.24,51.24,0,0,0-6.39,6.78A54.41,54.41,0,0,0,94,54.44,59.86,59.86,0,0,0,90.31,63c-.24.74-.45,1.49-.69,2.24s-.41,1.51-.59,2.26l-.28,1.14-.14.57-.11.57-.43,2.31a65.73,65.73,0,0,0-.84,9.29A74.52,74.52,0,0,0,89,99.22l-1.44-.45,2.7.86Z"/><path class="cls-2" d="M77,136.74q-6.84,1-13.72,1.85c-2.28.29-4.58.54-6.87.81l-6.87.76-6.89.68c-2.3.21-4.59.45-6.89.64q-6.89.65-13.8,1.07,6.84-1,13.72-1.85c2.29-.29,4.58-.54,6.87-.81l6.88-.75,6.89-.69c2.29-.22,4.59-.45,6.89-.64Q70.11,137.17,77,136.74Z"/><path class="cls-2" d="M77,147.68c-3.52.47-7,.83-10.57,1.17-1.76.17-3.53.31-5.29.47l-5.3.41-5.3.34c-1.77.1-3.53.22-5.3.3-3.54.18-7.08.33-10.63.37,3.52-.47,7-.83,10.57-1.17,1.76-.17,3.53-.31,5.29-.46l5.3-.4,5.3-.35c1.77-.1,3.54-.22,5.31-.29C69.92,147.87,73.46,147.72,77,147.68Z"/><path class="cls-2" d="M78,157.94c-2.65.29-5.29.49-7.94.65-1.32.09-2.65.14-4,.21l-4,.16-4,.1c-1.32,0-2.65.05-4,0-2.66,0-5.31,0-8-.14,2.65-.3,5.29-.49,7.94-.66,1.32-.08,2.65-.14,4-.21l4-.15,4-.1c1.32,0,2.65-.05,4-.05C72.74,157.79,75.38,157.81,78,157.94Z"/><path class="cls-2" d="M141.06,43.9V94.16h-1.57q-3.06,0-9.06.57v-.86A7.05,7.05,0,0,0,135,91.06q2.1-2.52,2.09-10.54V57.3q0-6.63-1.47-9.4a7.71,7.71,0,0,0-5.2-3.72v-.85Q136.77,43.8,141.06,43.9Zm7,50.26h-3.49V43.9c.8,0,1.42,0,1.86,0,1.82-.06,3.56-.17,5.25-.33a31.85,31.85,0,0,1,3.67-.19q8.49,0,12.5,4.43a16.29,16.29,0,0,1,4,11.16q0,6.83-4.34,10.87a15.65,15.65,0,0,1-11.3,4.15,23.48,23.48,0,0,1-7.72-1.33v8.48c0,4.17.58,7.24,1.76,9.21a7.18,7.18,0,0,0,5.68,3.57v.86c-1.34-.19-3-.33-5-.43Zm.38-35.53V69a18,18,0,0,0,7.05,1.38q6.06,0,9.07-3.34a12.17,12.17,0,0,0,3-8.39,12.65,12.65,0,0,0-3-8.63q-3-3.44-9.4-3.43A9.42,9.42,0,0,0,150,47.71Q148.41,48.86,148.41,58.63Zm21.65,13.31a17.69,17.69,0,0,0,5.19-12.78,19.64,19.64,0,0,0-5.19-13.59q9.58,3.85,9.58,13.16Q179.64,67.83,170.06,71.94Z"/><path class="cls-2" d="M191.52,44.28l6.72,6.25L196,52.91l-6.68-6.2Zm-1.86,38V60.16h3.57V84q0,5.25,1.05,7.49a6.14,6.14,0,0,0,3.34,3.34h-1.48a10.87,10.87,0,0,1-4.86-4Q189.66,88.25,189.66,82.29ZM196,39.51l6.68,6.25-2.24,2.38-6.73-6.2Zm.43,43.59V60.16H200V83.81q0,8.68,6,8.68a6,6,0,0,0,3.2-.76v1a8.23,8.23,0,0,1-5.34,2,6.5,6.5,0,0,1-4.49-1.62A7,7,0,0,1,197,89.49,25.69,25.69,0,0,1,196.38,83.1Z"/><path class="cls-2" d="M220.8,62.16A20.19,20.19,0,0,0,217,74.27a20.53,20.53,0,0,0,2.76,10.64A7.66,7.66,0,0,1,215,81a12.54,12.54,0,0,1-1.91-6.68,13.12,13.12,0,0,1,2.24-7.63A12.46,12.46,0,0,1,220.8,62.16ZM215,113.23q4.47,9.64,16.92,12.64a15.72,15.72,0,0,1-5,.81q-6.1,0-9.4-3.48a10.59,10.59,0,0,1-3.33-7.39A5.47,5.47,0,0,1,215,113.23Zm10.2-10.1q-6-2.77-6-7.06,0-5.25,8.59-8.59-7.59-3.09-7.59-13.3,0-6.72,3.63-10.64a11.6,11.6,0,0,1,8.92-3.91,12.2,12.2,0,0,1,9.15,3.82q3.63,3.76,3.63,10.87,0,12.89-11.88,14.59-5.1.72-5.1,3a2.1,2.1,0,0,0,1.43,2,60.18,60.18,0,0,0,7.87,2.39q10,2.67,14,6a10.75,10.75,0,0,1,4.1,8.58,9,9,0,0,1-4.24,8.11l-.2-.15a9.91,9.91,0,0,0,1.67-5.86,9.78,9.78,0,0,0-3.95-8.06q-4.07-3.06-12.07-5.1-7.63-2-9.54-3a3,3,0,0,1-2-2.72q0-1.75,2.19-4.43-4.82,2-4.81,5.58a4.2,4.2,0,0,0,1.81,3.48c1.21,1,4,2.1,8.49,3.43q9.72,2.91,13.06,5a6.73,6.73,0,0,1,3.39,5.82c0,2.57-1.26,4.88-3.77,6.91a14.93,14.93,0,0,1-9.73,3.06,20.22,20.22,0,0,1-12.68-4.15q-5.38-4.15-5.39-8.49T225.23,103.13Zm2.19.9q-5.14,2.72-5.15,5.91c0,2.26,1.36,4.39,4.06,6.39a16.42,16.42,0,0,0,10,3,12.66,12.66,0,0,0,7-1.77q2.82-1.71,2.82-4.14c0-1.28-.76-2.42-2.29-3.44a40.26,40.26,0,0,0-8.68-3.38A71.73,71.73,0,0,1,227.42,104Zm-3.24-29.85q0,11.29,8.78,11.3a7.72,7.72,0,0,0,6.34-3q2.34-2.89,2.34-8.39c0-3.88-.82-6.79-2.44-8.73a7.78,7.78,0,0,0-6.15-2.9,8.09,8.09,0,0,0-6.34,2.86Q224.18,68.32,224.18,74.18Zm40.87-14.31,1.24.24q-.62,5.91-4.1,5.91a9.83,9.83,0,0,1-4.29-1.38A9.06,9.06,0,0,0,254,63.31a4.52,4.52,0,0,0-4,2.19l.14.29a4.66,4.66,0,0,1,1.48-.39q1.42,0,4.34,2a7.94,7.94,0,0,0,4.34,1.48,4.45,4.45,0,0,0,2.62-.77l.38.53a5.71,5.71,0,0,1-4.57,2.62,8,8,0,0,1-4.44-2,10.91,10.91,0,0,0-3.19-1.86,16.38,16.38,0,0,1,1.57,6.68q0,8.78-7.06,11.54a20.29,20.29,0,0,0,3.05-11.44c0-5.38-1.43-9.79-4.29-13.26a10.29,10.29,0,0,1,4.29,2.86q2.91-3.77,6-3.77a8.69,8.69,0,0,1,4,1.29,9.1,9.1,0,0,0,3.57,1.34C263.49,62.69,264.41,61.75,265.05,59.87Z"/><path class="cls-2" d="M274.78,90.34l-.19.29q-7.2-4.14-7.2-13A17.73,17.73,0,0,1,268.67,71a16.67,16.67,0,0,1,5.39-6.43l.24.23a24.61,24.61,0,0,0-3,12.5A23.85,23.85,0,0,0,274.78,90.34ZM300.72,75H278.59q-.09,2.38-.09,2.91,0,6.19,3.38,10a11.38,11.38,0,0,0,8.83,3.72,14.22,14.22,0,0,0,8.1-2.43,17.06,17.06,0,0,0,5.73-6.53h2Q302.2,95.21,289.9,95.21q-7.39,0-11.4-5.15t-4-12.92a20.47,20.47,0,0,1,3.72-12.55,11.41,11.41,0,0,1,9.59-5,11.61,11.61,0,0,1,8.39,3.58Q299.76,66.74,300.72,75ZM279,71.51h17a11.27,11.27,0,0,0-2.24-6.11,7.19,7.19,0,0,0-6-2.67,7.86,7.86,0,0,0-5.86,2.44A10.59,10.59,0,0,0,279,71.51ZM308.11,75h-4.24q-.24-8.69-4.53-12.74Q307,65.51,308.11,75Z"/><path class="cls-2" d="M321.51,62.54q-4.42,4.92-4.43,14.5t4.43,14.69q-8.25-4.68-8.25-14.88T321.51,62.54Zm-1.19,15q0-9.26,3.77-13.78t10.49-4.58a13.9,13.9,0,0,1,10.25,4.05q4.05,4,4.05,13.4,0,10.26-4.34,14.31A14.37,14.37,0,0,1,334.43,95a13.25,13.25,0,0,1-10-4.29Q320.31,86.49,320.32,77.52Zm4-.77c0,5.82.88,9.76,2.67,11.83a10.53,10.53,0,0,0,15.06-.14q2.82-3.24,2.82-11.83,0-14.44-10.3-14.45T324.33,76.75ZM347.74,91.2q4.38-4.9,4.39-13.64a36.12,36.12,0,0,0-1.05-8.87,12,12,0,0,0-3.34-6.19,15.2,15.2,0,0,1,8.34,14.21Q356.08,85.91,347.74,91.2Z"/><path class="cls-2" d="M370.72,60.16v34c-3.27.16-6.12.35-8.53.57v-.86a7.36,7.36,0,0,0,3.58-2.57q1.43-1.86,1.43-8.92V70.65a17.2,17.2,0,0,0-1.1-7.06c-.76-1.43-2.31-2.48-4.63-3.15v-.81Q363.72,59.92,370.72,60.16Zm3.39,34v-34c1.69-.06,3-.14,3.82-.24l-.34,2.53a24.72,24.72,0,0,1,11.07-3,9.62,9.62,0,0,1,5.62,1.62,7,7,0,0,1,2.86,3.77,29.36,29.36,0,0,1,.58,7V94.16c-1.31.06-2.58.16-3.82.29q.33-6,.33-8.35V70.89q0-4.68-1.33-6.58c-.92-1.31-2.58-2-5-2q-3.81,0-10.35,3.15V84.91q0,7.64,5.63,9v.86C379.4,94.35,376.37,94.16,374.11,94.16Zm26.94,0V70.89a26.08,26.08,0,0,0-.66-7,6.68,6.68,0,0,0-3.06-3.49,7.75,7.75,0,0,1,5.2,2.25q2,2,2,9.3V83.1a25,25,0,0,0,.47,5.81,5.89,5.89,0,0,0,2,3.2,7.13,7.13,0,0,0,3.62,1.76v.86q-1.57-.14-5.22-.36T401.05,94.16Z"/><path class="cls-1" d="M140.92,119.36v50.27q-4.2,0-10,.57v-.86a7.38,7.38,0,0,0,4.72-4.05c1-2,1.43-5.28,1.43-9.83V131.91q0-6.5-1.72-9.06a7.33,7.33,0,0,0-4.43-3.15v-.91Q136,119.23,140.92,119.36Zm5.58,50.27h-1.91V119.36h11.83q5.15,0,13.59-.57c0,.83,0,1.91,0,3.25,0,.76,0,2.19.14,4.29.1,2.32.15,3.53.15,3.62v1.24h-1q-1.33-8.58-8.11-8.58h-9.25a8.52,8.52,0,0,0-2.82.43,65.08,65.08,0,0,0-.62,10.06V143h8.35c3.59,0,6.21-.44,7.87-1.34a6.38,6.38,0,0,0,3.15-4.62h1q-.33,5.15-.33,7.1c0,.8.05,2.15.14,4.06s.19,3.11.19,3.91v1.57h-1q-.24-7.53-8.06-7.53H148.45v11.06q0,10.78,6.59,12.16v.86C150.52,169.82,147.68,169.63,146.5,169.63Z"/><path class="cls-1" d="M184.36,112v45.5q0,6.48.72,8.49a14.33,14.33,0,0,0,2.29,4,8.25,8.25,0,0,1-4.06-2.43,8.7,8.7,0,0,1-1.95-4.25,50.09,50.09,0,0,1-.48-8.49V122.89a33.44,33.44,0,0,0-.33-5.86,6.17,6.17,0,0,0-1.72-3,6.32,6.32,0,0,0-3.48-1.72v-.81c1,0,2.5.09,4.53.28C180.9,111.83,182.39,111.91,184.36,112Zm15.55,55.84.24,1a8,8,0,0,1-5,1.76,6.3,6.3,0,0,1-5.77-3q-1.86-3-1.86-10.07V112q2.87-.09,4.05-.24-.52,8.16-.52,11.74v31.95a70.05,70.05,0,0,0,.29,8,5.52,5.52,0,0,0,1.76,3.53,5.43,5.43,0,0,0,4,1.43A7.37,7.37,0,0,0,199.91,167.81Z"/><path class="cls-1" d="M226.57,187.8v.85l-15,3.06L223,169.63l-16.17-25q-5.1-7.81-10.54-8.73v-.81q3,.39,8.68.81l21.94,33.72-5,9.68a11.84,11.84,0,0,0-1.57,5,2.87,2.87,0,0,0,1.62,2.63,6.65,6.65,0,0,0,3.29.95Zm12.49-41.64-10.4,20-19.79-30.24q7.35-.37,10.73-.81v.81q-3.48,1-3.48,3.39c0,1,.69,2.64,2,4.77l10,15.45,6.72-13c1.5-3,2.24-5.11,2.24-6.35q0-3-4.67-4.29v-.81c-.13,0,.79.08,2.77.24q3.85.28,6.1.29a62.51,62.51,0,0,0,7.44-.53v.81Q243.17,138.16,239.06,146.16Z"/></g></svg>